<?xml version="1.0" encoding="utf-8"?>
<!-- Generator: Adobe Illustrator 15.0.0, SVG Export Plug-In . SVG Version: 6.00 Build 0)  -->
<!DOCTYPE svg PUBLIC "-//W3C//DTD SVG 1.1//EN" "http://www.w3.org/Graphics/SVG/1.1/DTD/svg11.dtd">
<svg version="1.1" id="Layer_1" xmlns="http://www.w3.org/2000/svg" xmlns:xlink="http://www.w3.org/1999/xlink" x="0px" y="0px"
	 width="262.635px" height="380.219px" viewBox="0 0 262.635 380.219" enable-background="new 0 0 262.635 380.219"
	 xml:space="preserve">
<g>
	<polygon points="239.56,312.088 239.56,290.111 214.834,290.111 214.834,147.253 241.757,147.253 241.757,67.033 257.69,67.033 
		257.69,0 198.35,0 198.35,43.407 160.988,43.407 160.988,0 101.647,0 101.647,43.407 64.285,43.407 64.285,0 4.944,0 4.944,67.033 
		20.878,67.033 20.878,147.253 47.801,147.253 47.801,290.111 23.075,290.111 23.075,312.088 0,312.088 0,345.054 262.635,345.054 
		262.635,312.088 	" fill="green"/>
	<rect y="363.736" width="262.635" height="16.482" fill='green'/>
</g>
</svg>
